<mxfile host="app.diagrams.net" modified="2022-06-14T07:33:10.791Z" agent="5.0 (Windows NT 10.0; Win64; x64) AppleWebKit/537.36 (KHTML, like Gecko) Chrome/102.0.5005.63 Safari/537.36" etag="0-MAOHXSwqweF4C2LQmG" version="20.0.1" type="github">
  <diagram id="NGXTgrKtgp9ipNUqkjLM" name="Page-1">
    <mxGraphModel dx="1287" dy="748" grid="1" gridSize="10" guides="1" tooltips="1" connect="1" arrows="1" fold="1" page="1" pageScale="1" pageWidth="827" pageHeight="1169" math="0" shadow="0">
      <root>
        <mxCell id="0" />
        <mxCell id="1" parent="0" />
        <mxCell id="8zy9Soi_tI7a-RE37aLQ-1" value="&lt;br&gt;head" style="text;html=1;align=center;verticalAlign=middle;resizable=0;points=[];autosize=1;strokeColor=none;fillColor=none;" vertex="1" parent="1">
          <mxGeometry x="120" y="290" width="40" height="30" as="geometry" />
        </mxCell>
        <mxCell id="8zy9Soi_tI7a-RE37aLQ-2" value="1" style="rounded=0;whiteSpace=wrap;html=1;" vertex="1" parent="1">
          <mxGeometry x="130" y="340" width="120" height="60" as="geometry" />
        </mxCell>
        <mxCell id="8zy9Soi_tI7a-RE37aLQ-3" value="2" style="rounded=0;whiteSpace=wrap;html=1;" vertex="1" parent="1">
          <mxGeometry x="300" y="340" width="120" height="60" as="geometry" />
        </mxCell>
        <mxCell id="8zy9Soi_tI7a-RE37aLQ-4" value="3" style="rounded=0;whiteSpace=wrap;html=1;" vertex="1" parent="1">
          <mxGeometry x="450" y="340" width="120" height="60" as="geometry" />
        </mxCell>
        <mxCell id="8zy9Soi_tI7a-RE37aLQ-5" value="" style="endArrow=classic;html=1;rounded=0;entryX=0;entryY=0.5;entryDx=0;entryDy=0;" edge="1" parent="1" source="8zy9Soi_tI7a-RE37aLQ-2" target="8zy9Soi_tI7a-RE37aLQ-3">
          <mxGeometry width="50" height="50" relative="1" as="geometry">
            <mxPoint x="330" y="410" as="sourcePoint" />
            <mxPoint x="380" y="360" as="targetPoint" />
          </mxGeometry>
        </mxCell>
        <mxCell id="8zy9Soi_tI7a-RE37aLQ-6" value="" style="endArrow=classic;html=1;rounded=0;" edge="1" parent="1">
          <mxGeometry width="50" height="50" relative="1" as="geometry">
            <mxPoint x="420" y="370" as="sourcePoint" />
            <mxPoint x="450" y="370" as="targetPoint" />
            <Array as="points">
              <mxPoint x="450" y="370" />
            </Array>
          </mxGeometry>
        </mxCell>
        <mxCell id="8zy9Soi_tI7a-RE37aLQ-7" value="-1" style="rounded=1;whiteSpace=wrap;html=1;" vertex="1" parent="1">
          <mxGeometry x="210" y="460" width="120" height="60" as="geometry" />
        </mxCell>
        <mxCell id="8zy9Soi_tI7a-RE37aLQ-8" value="" style="endArrow=classic;html=1;rounded=0;entryX=0.5;entryY=0;entryDx=0;entryDy=0;exitX=0.5;exitY=1;exitDx=0;exitDy=0;" edge="1" parent="1" source="8zy9Soi_tI7a-RE37aLQ-2" target="8zy9Soi_tI7a-RE37aLQ-7">
          <mxGeometry width="50" height="50" relative="1" as="geometry">
            <mxPoint x="260" y="380" as="sourcePoint" />
            <mxPoint x="310" y="380" as="targetPoint" />
          </mxGeometry>
        </mxCell>
        <mxCell id="8zy9Soi_tI7a-RE37aLQ-9" value="" style="endArrow=classic;html=1;rounded=0;entryX=0.442;entryY=1.05;entryDx=0;entryDy=0;entryPerimeter=0;" edge="1" parent="1" target="8zy9Soi_tI7a-RE37aLQ-3">
          <mxGeometry width="50" height="50" relative="1" as="geometry">
            <mxPoint x="270" y="460" as="sourcePoint" />
            <mxPoint x="280" y="470" as="targetPoint" />
          </mxGeometry>
        </mxCell>
        <mxCell id="8zy9Soi_tI7a-RE37aLQ-11" value="" style="rounded=0;whiteSpace=wrap;html=1;" vertex="1" parent="1">
          <mxGeometry x="-10" y="340" width="120" height="60" as="geometry" />
        </mxCell>
        <mxCell id="8zy9Soi_tI7a-RE37aLQ-12" value="dummyHead" style="text;html=1;align=center;verticalAlign=middle;resizable=0;points=[];autosize=1;strokeColor=none;fillColor=none;" vertex="1" parent="1">
          <mxGeometry x="-20" y="300" width="80" height="20" as="geometry" />
        </mxCell>
        <mxCell id="8zy9Soi_tI7a-RE37aLQ-13" value="" style="endArrow=none;html=1;rounded=0;" edge="1" parent="1">
          <mxGeometry width="50" height="50" relative="1" as="geometry">
            <mxPoint x="120" y="660" as="sourcePoint" />
            <mxPoint x="120" y="250" as="targetPoint" />
          </mxGeometry>
        </mxCell>
        <mxCell id="8zy9Soi_tI7a-RE37aLQ-14" value="linkedList&lt;br&gt;" style="text;html=1;align=center;verticalAlign=middle;resizable=0;points=[];autosize=1;strokeColor=none;fillColor=none;" vertex="1" parent="1">
          <mxGeometry x="205" y="570" width="70" height="20" as="geometry" />
        </mxCell>
      </root>
    </mxGraphModel>
  </diagram>
</mxfile>
